<svg version="1.1" id="Plus" xmlns="http://www.w3.org/2000/svg" x="0" y="0" viewBox="0 0 24 24" xml:space="preserve"><style>.st0{fill:#666}</style><path class="st0" d="M12 0C5.4 0 0 5.4 0 12s5.4 12 12 12 12-5.4 12-12S18.6 0 12 0zm0 22.7c-2.9 0-5.6-1.2-7.5-3.1-.8-.8-1.5-1.7-2-2.6-.8-1.5-1.2-3.2-1.2-5C1.3 6.1 6.1 1.3 12 1.3c2.8 0 5.4 1.1 7.3 2.8 1 .9 1.8 2 2.4 3.2.7 1.4 1 3 1 4.6 0 6-4.8 10.8-10.7 10.8z"/><circle class="st0" cx="8" cy="9.3" r="1.3"/><circle class="st0" cx="16" cy="9.3" r="1.3"/><path class="st0" d="M17.4 16.4c.1.2.2.4.3.5l1.2-.5c-.1-.2-.2-.4-.3-.7-1.4-2.4-4.1-3.9-6.9-3.8-2.8.1-5.3 1.9-6.4 4.5l1.1.6c.9-2.1 3-3.6 5.3-3.7 2.3-.1 4.5 1.1 5.7 3.1z"/><path transform="rotate(-54.133 9.189 6.162)" class="st0" d="M8.5 4.9h1.3v2.6H8.5z"/><path transform="rotate(-35.865 14.81 6.162)" class="st0" d="M13.5 5.5h2.6v1.3h-2.6z"/></svg>