<svg version="1.1" id="Plus" xmlns="http://www.w3.org/2000/svg" x="0" y="0" viewBox="0 0 24 24" xml:space="preserve"><style>.st0{fill:#666}</style><path class="st0" d="M8.3 10.6c.4 0 .7-.1.9-.4.2-.2.4-.5.4-.9C9.6 8.6 9 8 8.3 8 7.6 8 7 8.6 7 9.3c0 .2 0 .3.1.5.2.4.6.8 1.2.8zm8.6-.8c.1-.2.1-.3.1-.5 0-.7-.6-1.3-1.3-1.3-.7 0-1.3.6-1.3 1.3 0 .4.1.7.4.9.2.2.6.4.9.4.5 0 1-.4 1.2-.8zM9 16h6v1.3H9z"/><path class="st0" d="M12 0C5.4 0 0 5.4 0 12s5.4 12 12 12 12-5.4 12-12S18.6 0 12 0zm0 22.7c-2.9 0-5.6-1.2-7.5-3.1-.8-.8-1.5-1.7-2-2.6-.8-1.5-1.2-3.2-1.2-5C1.3 6.1 6.1 1.3 12 1.3c2.8 0 5.4 1.1 7.3 2.8 1 .9 1.8 2 2.4 3.2.7 1.4 1 3 1 4.6 0 6-4.8 10.8-10.7 10.8z"/></svg>