<svg version="1.1" id="Plus" xmlns="http://www.w3.org/2000/svg" x="0" y="0" viewBox="0 0 24 24" xml:space="preserve"><style>.st0{fill:#666}</style><path class="st0" d="M12 0C5.4 0 0 5.4 0 12s5.4 12 12 12 12-5.4 12-12S18.6 0 12 0zm0 22.7c-2.9 0-5.6-1.2-7.5-3.1-.8-.8-1.5-1.7-2-2.6-.8-1.5-1.2-3.2-1.2-5C1.3 6.1 6.1 1.3 12 1.3c2.8 0 5.4 1.1 7.3 2.8 1 .9 1.8 2 2.4 3.2.7 1.4 1 3 1 4.6 0 6-4.8 10.8-10.7 10.8z"/><path class="st0" d="M7.9 9.3c.7 0 1.3.5 1.3 1.3h1.3C10.4 9.1 9.3 8 7.9 8s-2.6 1.1-2.6 2.6h1.3c0-.8.6-1.3 1.3-1.3zm8.2 0c.7 0 1.3.5 1.3 1.3h1.3c0-1.5-1.1-2.6-2.6-2.6-1.4 0-2.6 1.1-2.6 2.6h1.3c.1-.8.6-1.3 1.3-1.3zM12 18.6c2.5 0 4.9-1.3 6.3-3.4l-1.1-.7c-1.3 2-3.6 3-5.9 2.8-1.8-.2-3.5-1.2-4.5-2.8l-1.1.7c1.2 1.9 3.2 3.1 5.4 3.4h.9z"/></svg>