<svg xmlns="http://www.w3.org/2000/svg" viewBox="0 0 2048 2048"><style type="text/css">  
	.st0{fill:#54CC61;}
	.st1{fill:#FFFFFE;}
	.st2{fill:none;}
</style><path class="st0" d="M2048 990c0-273.4-111.7-520.9-292.2-700C1575.3 110.8 1326 0 1050.6 0 775.1 0 525.6 110.8 345 289.8 164.4 469 52.6 716.4 52.6 989.7c0 91.7 12.7 180.7 36.4 265.3 23.5 84 58 163.6 101.6 237.1L17.8 2002.3l-13.7 40.3 40.6-12.9 531.6-169.1c70.4 37.9 145.7 67.5 224.7 87.7 79.7 20.4 163.1 31.2 249.2 31.2 275.4 0 524.8-110.8 705.3-289.8C1936.3 1510.6 2048 1263.2 2048 990L2048 990z"/><path class="st1" d="M888.4 719.8c-4.4-8.8-29.7-69.8-53-126.1 -14.9-36-29.1-70.3-31.9-76.9 -26.2-62.5-55.2-60.7-77.5-59.2 -1.5 0.1-2.9 0.2-4.7 0.2 -7.8 0-15.4-0.5-23.3-1 -9.9-0.6-20.1-1.3-29.8-1.3 -12.9 0-30.4 2.7-48.9 11.3 -13.7 6.4-27.9 16.1-40.8 30.3 -1.9 2-3.3 3.5-4.9 5.2 -30.8 32.4-97.9 102.9-97.9 238.4 0 142.1 102.5 277.3 117.6 297.1l-0.1 0 0.1 0.2 0.2 0.2c0.6 0.8 2.8 3.9 6 8.6 37.9 55.4 212 309.8 476.6 413.1 240.1 93.6 283.5 83.1 322.3 73.7 6.6-1.6 13.1-3.2 20-3.8 31.4-3 82.8-24.5 126.1-54.6 35.9-25 67.2-56.7 79.2-90 10.7-29.8 16.8-57.5 19.6-80.3 4.1-33.1 0.8-59.1-5.2-69.2l-0.1-0.1c-9.2-15.1-25-22.6-48.8-33.8 -4.2-2-8.7-4.1-13-6.2l0 0c-16.4-8.3-73.1-36-121.6-59 -31.3-14.8-59.2-27.5-70.2-31.5 -15.5-5.6-29-9.8-43.5-8.1 -16.4 1.9-30.7 10.3-44 30.4l0 0c-6.7 10-18.4 25-31.3 40.7 -20.3 24.9-44.6 52.9-54.9 64.6v0.1c-4.4 5-8.2 7.8-12 8.2 -5.2 0.6-12.3-1.5-22.2-6.3 -6.3-3.2-12.4-5.8-20-9.1 -38.3-16.5-113-48.7-198.1-124 -30.4-26.9-57.2-56.4-79.6-84 -36.2-44.7-60.7-84.5-70.4-101.3 -7.7-13.2 0.9-21.7 8.7-29.6l0 0c8.7-8.7 18.6-20.5 28.5-32.4 4.5-5.4 9-10.8 14.5-17.1l0.1-0.1c13.3-15.5 18.9-26.8 26.3-42 1.3-2.7 2.7-5.4 4-8.2l0.1-0.1c6.6-13.2 8.2-25.8 7-37.6C896.5 738.3 892.8 728.5 888.4 719.8L888.4 719.8 888.4 719.8z"/><rect class="st2" width="2048" height="2048"/></svg>
 
