<svg version="1.1" id="Plus" xmlns="http://www.w3.org/2000/svg" x="0" y="0" viewBox="0 0 24 24" xml:space="preserve"><style>.st0{fill:#666}</style><path class="st0" d="M12 0C5.4 0 0 5.4 0 12s5.4 12 12 12 12-5.4 12-12S18.6 0 12 0zm0 22.7c-2.9 0-5.6-1.2-7.5-3.1-.8-.8-1.5-1.7-2-2.6-.8-1.5-1.2-3.2-1.2-5C1.3 6.1 6.1 1.3 12 1.3c2.8 0 5.4 1.1 7.3 2.8 1 .9 1.8 2 2.4 3.2.7 1.4 1 3 1 4.6 0 6-4.8 10.8-10.7 10.8z"/><path class="st0" d="M14.3 14.8c1-.1 2.1.1 3 .7l.7-1.1c-1.2-.7-2.5-1-3.9-.8-2.2.3-4 1.8-4.7 3.9l1.2.4c.6-1.7 2-2.9 3.7-3.1z"/><circle class="st0" cx="8" cy="9.3" r="1.3"/><circle class="st0" cx="16" cy="9.3" r="1.3"/></svg>